<mxfile host="app.diagrams.net" modified="2021-12-21T12:33:36.930Z" agent="5.0 (Windows NT 10.0; Win64; x64) AppleWebKit/537.36 (KHTML, like Gecko) Chrome/96.0.4664.110 Safari/537.36" etag="4s3rpUEuQWIC9fi6lGjx" version="16.0.0" type="github">
  <diagram id="5ox6vrLQ1LK0xjVWkyLI" name="Page-1">
    <mxGraphModel dx="850" dy="908" grid="1" gridSize="10" guides="1" tooltips="1" connect="1" arrows="1" fold="1" page="1" pageScale="1" pageWidth="850" pageHeight="1100" math="0" shadow="0">
      <root>
        <mxCell id="0" />
        <mxCell id="1" parent="0" />
        <mxCell id="FG7V7j7pLR6MBgCFYdSH-4" style="edgeStyle=orthogonalEdgeStyle;rounded=0;orthogonalLoop=1;jettySize=auto;html=1;entryX=0.5;entryY=0;entryDx=0;entryDy=0;" parent="1" source="FG7V7j7pLR6MBgCFYdSH-2" target="FG7V7j7pLR6MBgCFYdSH-3" edge="1">
          <mxGeometry relative="1" as="geometry" />
        </mxCell>
        <mxCell id="FG7V7j7pLR6MBgCFYdSH-2" value="" style="ellipse;whiteSpace=wrap;html=1;aspect=fixed;" parent="1" vertex="1">
          <mxGeometry x="480" y="360" width="40" height="40" as="geometry" />
        </mxCell>
        <mxCell id="FG7V7j7pLR6MBgCFYdSH-3" value="Website" style="rounded=1;whiteSpace=wrap;html=1;" parent="1" vertex="1">
          <mxGeometry x="450" y="440" width="100" height="40" as="geometry" />
        </mxCell>
        <mxCell id="Ms-j1hEhhhnb1ak16pZm-5" style="edgeStyle=orthogonalEdgeStyle;rounded=0;orthogonalLoop=1;jettySize=auto;html=1;" edge="1" parent="1" source="FG7V7j7pLR6MBgCFYdSH-6" target="Ms-j1hEhhhnb1ak16pZm-1">
          <mxGeometry relative="1" as="geometry" />
        </mxCell>
        <mxCell id="FG7V7j7pLR6MBgCFYdSH-6" value="Register" style="rounded=1;whiteSpace=wrap;html=1;" parent="1" vertex="1">
          <mxGeometry x="740" y="600" width="100" height="40" as="geometry" />
        </mxCell>
        <mxCell id="Ms-j1hEhhhnb1ak16pZm-10" style="edgeStyle=orthogonalEdgeStyle;rounded=0;orthogonalLoop=1;jettySize=auto;html=1;entryX=0;entryY=0.75;entryDx=0;entryDy=0;" edge="1" parent="1" source="FG7V7j7pLR6MBgCFYdSH-7" target="Ms-j1hEhhhnb1ak16pZm-9">
          <mxGeometry relative="1" as="geometry">
            <Array as="points">
              <mxPoint x="420" y="870" />
            </Array>
          </mxGeometry>
        </mxCell>
        <mxCell id="FG7V7j7pLR6MBgCFYdSH-7" value="Login" style="rounded=1;whiteSpace=wrap;html=1;" parent="1" vertex="1">
          <mxGeometry x="370" y="600" width="100" height="40" as="geometry" />
        </mxCell>
        <mxCell id="FG7V7j7pLR6MBgCFYdSH-9" style="edgeStyle=orthogonalEdgeStyle;rounded=0;orthogonalLoop=1;jettySize=auto;html=1;" parent="1" source="FG7V7j7pLR6MBgCFYdSH-8" target="FG7V7j7pLR6MBgCFYdSH-7" edge="1">
          <mxGeometry relative="1" as="geometry" />
        </mxCell>
        <mxCell id="FG7V7j7pLR6MBgCFYdSH-12" style="edgeStyle=orthogonalEdgeStyle;rounded=0;orthogonalLoop=1;jettySize=auto;html=1;" parent="1" source="FG7V7j7pLR6MBgCFYdSH-8" target="FG7V7j7pLR6MBgCFYdSH-6" edge="1">
          <mxGeometry relative="1" as="geometry">
            <mxPoint x="530" y="600" as="targetPoint" />
            <Array as="points">
              <mxPoint x="500" y="575" />
              <mxPoint x="790" y="575" />
            </Array>
          </mxGeometry>
        </mxCell>
        <mxCell id="FG7V7j7pLR6MBgCFYdSH-8" value="Punya akun?" style="rounded=1;whiteSpace=wrap;html=1;" parent="1" vertex="1">
          <mxGeometry x="450" y="510" width="100" height="40" as="geometry" />
        </mxCell>
        <mxCell id="FG7V7j7pLR6MBgCFYdSH-13" value="Tidak" style="text;html=1;align=center;verticalAlign=middle;resizable=0;points=[];autosize=1;strokeColor=none;fillColor=none;" parent="1" vertex="1">
          <mxGeometry x="680" y="550" width="40" height="20" as="geometry" />
        </mxCell>
        <mxCell id="FG7V7j7pLR6MBgCFYdSH-14" value="Ya" style="text;html=1;align=center;verticalAlign=middle;resizable=0;points=[];autosize=1;strokeColor=none;fillColor=none;" parent="1" vertex="1">
          <mxGeometry x="420" y="550" width="30" height="20" as="geometry" />
        </mxCell>
        <mxCell id="FG7V7j7pLR6MBgCFYdSH-15" value="Login/Register" style="swimlane;childLayout=stackLayout;resizeParent=1;resizeParentMax=0;startSize=20;" parent="1" vertex="1">
          <mxGeometry x="340" y="300" width="580" height="835" as="geometry" />
        </mxCell>
        <mxCell id="FG7V7j7pLR6MBgCFYdSH-16" value="User" style="swimlane;startSize=20;" parent="FG7V7j7pLR6MBgCFYdSH-15" vertex="1">
          <mxGeometry y="20" width="300" height="815" as="geometry" />
        </mxCell>
        <mxCell id="FG7V7j7pLR6MBgCFYdSH-17" value="System" style="swimlane;startSize=20;" parent="FG7V7j7pLR6MBgCFYdSH-15" vertex="1">
          <mxGeometry x="300" y="20" width="280" height="815" as="geometry" />
        </mxCell>
        <mxCell id="Ms-j1hEhhhnb1ak16pZm-3" style="edgeStyle=orthogonalEdgeStyle;rounded=0;orthogonalLoop=1;jettySize=auto;html=1;entryX=1;entryY=0.5;entryDx=0;entryDy=0;" edge="1" parent="1" source="Ms-j1hEhhhnb1ak16pZm-1" target="Ms-j1hEhhhnb1ak16pZm-2">
          <mxGeometry relative="1" as="geometry" />
        </mxCell>
        <mxCell id="Ms-j1hEhhhnb1ak16pZm-1" value="Buat Form" style="rounded=1;whiteSpace=wrap;html=1;" vertex="1" parent="1">
          <mxGeometry x="740" y="680" width="100" height="40" as="geometry" />
        </mxCell>
        <mxCell id="Ms-j1hEhhhnb1ak16pZm-8" style="edgeStyle=orthogonalEdgeStyle;rounded=0;orthogonalLoop=1;jettySize=auto;html=1;entryX=0;entryY=0.5;entryDx=0;entryDy=0;" edge="1" parent="1" source="Ms-j1hEhhhnb1ak16pZm-2" target="Ms-j1hEhhhnb1ak16pZm-4">
          <mxGeometry relative="1" as="geometry">
            <Array as="points">
              <mxPoint x="550" y="770" />
            </Array>
          </mxGeometry>
        </mxCell>
        <mxCell id="Ms-j1hEhhhnb1ak16pZm-2" value="Data&lt;br&gt;(email, password)" style="rounded=1;whiteSpace=wrap;html=1;" vertex="1" parent="1">
          <mxGeometry x="500" y="600" width="100" height="40" as="geometry" />
        </mxCell>
        <mxCell id="Ms-j1hEhhhnb1ak16pZm-15" style="edgeStyle=orthogonalEdgeStyle;rounded=0;orthogonalLoop=1;jettySize=auto;html=1;entryX=1;entryY=0.5;entryDx=0;entryDy=0;" edge="1" parent="1" source="Ms-j1hEhhhnb1ak16pZm-4" target="Ms-j1hEhhhnb1ak16pZm-14">
          <mxGeometry relative="1" as="geometry">
            <Array as="points">
              <mxPoint x="890" y="770" />
              <mxPoint x="890" y="1020" />
            </Array>
          </mxGeometry>
        </mxCell>
        <mxCell id="Ms-j1hEhhhnb1ak16pZm-4" value="Simpan data" style="rounded=1;whiteSpace=wrap;html=1;" vertex="1" parent="1">
          <mxGeometry x="740" y="750" width="100" height="40" as="geometry" />
        </mxCell>
        <mxCell id="Ms-j1hEhhhnb1ak16pZm-12" style="edgeStyle=orthogonalEdgeStyle;rounded=0;orthogonalLoop=1;jettySize=auto;html=1;" edge="1" parent="1" source="Ms-j1hEhhhnb1ak16pZm-9" target="Ms-j1hEhhhnb1ak16pZm-11">
          <mxGeometry relative="1" as="geometry" />
        </mxCell>
        <mxCell id="Ms-j1hEhhhnb1ak16pZm-9" value="Validasi" style="rounded=1;whiteSpace=wrap;html=1;" vertex="1" parent="1">
          <mxGeometry x="740" y="840" width="100" height="40" as="geometry" />
        </mxCell>
        <mxCell id="Ms-j1hEhhhnb1ak16pZm-13" style="edgeStyle=orthogonalEdgeStyle;rounded=0;orthogonalLoop=1;jettySize=auto;html=1;entryX=0.884;entryY=1.04;entryDx=0;entryDy=0;entryPerimeter=0;" edge="1" parent="1" source="Ms-j1hEhhhnb1ak16pZm-11" target="FG7V7j7pLR6MBgCFYdSH-7">
          <mxGeometry relative="1" as="geometry" />
        </mxCell>
        <mxCell id="Ms-j1hEhhhnb1ak16pZm-16" style="edgeStyle=orthogonalEdgeStyle;rounded=0;orthogonalLoop=1;jettySize=auto;html=1;" edge="1" parent="1" source="Ms-j1hEhhhnb1ak16pZm-11" target="Ms-j1hEhhhnb1ak16pZm-14">
          <mxGeometry relative="1" as="geometry" />
        </mxCell>
        <mxCell id="Ms-j1hEhhhnb1ak16pZm-11" value="Valid?" style="rhombus;whiteSpace=wrap;html=1;" vertex="1" parent="1">
          <mxGeometry x="765" y="920" width="50" height="50" as="geometry" />
        </mxCell>
        <mxCell id="Ms-j1hEhhhnb1ak16pZm-14" value="Website" style="rounded=1;whiteSpace=wrap;html=1;" vertex="1" parent="1">
          <mxGeometry x="740" y="1000" width="100" height="40" as="geometry" />
        </mxCell>
        <mxCell id="Ms-j1hEhhhnb1ak16pZm-17" value="Tidak" style="text;html=1;align=center;verticalAlign=middle;resizable=0;points=[];autosize=1;strokeColor=none;fillColor=none;" vertex="1" parent="1">
          <mxGeometry x="680" y="920" width="40" height="20" as="geometry" />
        </mxCell>
        <mxCell id="Ms-j1hEhhhnb1ak16pZm-18" value="Ya" style="text;html=1;align=center;verticalAlign=middle;resizable=0;points=[];autosize=1;strokeColor=none;fillColor=none;" vertex="1" parent="1">
          <mxGeometry x="795" y="970" width="30" height="20" as="geometry" />
        </mxCell>
      </root>
    </mxGraphModel>
  </diagram>
</mxfile>
